<svg id="Group_63" data-name="Group 63" xmlns="http://www.w3.org/2000/svg" xmlns:xlink="http://www.w3.org/1999/xlink" width="203.152" height="108.234" viewBox="0 0 203.152 108.234">
  <defs>
    <clipPath id="clip-path">
      <rect id="Rectangle_4" data-name="Rectangle 4" width="203.152" height="108.234" fill="none"/>
    </clipPath>
    <clipPath id="clip-path-2">
      <rect id="Rectangle_1" data-name="Rectangle 1" width="18.209" height="25.531" fill="none"/>
    </clipPath>
    <clipPath id="clip-path-3">
      <rect id="Rectangle_2" data-name="Rectangle 2" width="25.722" height="18.114" fill="none"/>
    </clipPath>
    <clipPath id="clip-path-4">
      <rect id="Rectangle_3" data-name="Rectangle 3" width="18.274" height="25.511" fill="none"/>
    </clipPath>
  </defs>
  <g id="Group_10" data-name="Group 10" clip-path="url(#clip-path)">
    <path id="Path_1" data-name="Path 1" d="M52.015,33.71H41.44l7.478-7.478a5.3,5.3,0,1,0-7.489-7.489L33.951,26.22V15.645a5.3,5.3,0,0,0-10.591,0V26.22l-7.478-7.478a5.3,5.3,0,0,0-7.49,7.489l7.478,7.478H5.3A5.3,5.3,0,1,0,5.3,44.3H15.871L8.393,51.778a5.3,5.3,0,1,0,7.49,7.49l7.478-7.479V62.364a5.3,5.3,0,1,0,10.591,0V51.789l7.478,7.479a5.3,5.3,0,1,0,7.489-7.49L41.44,44.3H52.015a5.3,5.3,0,0,0,0-10.591" transform="translate(0 -4.114)" fill="#df121d"/>
    <g id="Group_3" data-name="Group 3" transform="translate(23.386 22.11)" opacity="0.75">
      <g id="Group_2" data-name="Group 2">
        <g id="Group_1" data-name="Group 1" clip-path="url(#clip-path-2)">
          <path id="Path_2" data-name="Path 2" d="M38.812,62.225l.02-25.531,18.188,18.04-10.674.017Z" transform="translate(-38.812 -36.694)" fill="#fff"/>
        </g>
      </g>
    </g>
    <g id="Group_6" data-name="Group 6" transform="translate(15.905 29.625)" opacity="0.75">
      <g id="Group_5" data-name="Group 5">
        <g id="Group_4" data-name="Group 4" clip-path="url(#clip-path-3)">
          <path id="Path_3" data-name="Path 3" d="M44.536,67.282,26.4,49.167l25.722.066-7.555,7.478Z" transform="translate(-26.397 -49.167)" fill="#fff"/>
        </g>
      </g>
    </g>
    <g id="Group_9" data-name="Group 9" transform="translate(15.786 22.141)" opacity="0.75">
      <g id="Group_8" data-name="Group 8">
        <g id="Group_7" data-name="Group 7" clip-path="url(#clip-path-4)">
          <path id="Path_4" data-name="Path 4" d="M26.2,54.924,44.271,36.745h0l.2,25.511-7.618-7.415Z" transform="translate(-26.198 -36.745)" fill="#fff"/>
        </g>
      </g>
    </g>
    <path id="Path_5" data-name="Path 5" d="M186.689,44.478h0a3.988,3.988,0,1,1-7.975,0V26.88a3.988,3.988,0,1,1,7.975,0ZM197.134,0H188.3a1.6,1.6,0,0,0-1.608,1.652V15.725c-.265,0-.524-.034-.823-.034H179.5c-8.314,0-12.691,4.451-12.691,12.312V43.354c0,7.226,4.377,12.317,12.691,12.317h6.362c8.457,0,12.689-5.091,12.689-12.317V1.652c0-.979-.413-1.652-1.421-1.652" transform="translate(-66.3)" fill="#df091f"/>
    <path id="Path_6" data-name="Path 6" d="M245.527,54.83h0a4.008,4.008,0,0,1-8.017,0v-17.6a4.008,4.008,0,0,1,8.017,0ZM244.7,26.043h-6.365c-8.31,0-12.685,4.452-12.685,12.311V53.708c0,7.222,4.376,12.317,12.685,12.317H244.7c8.461,0,12.69-5.1,12.69-12.317V38.354c0-7.671-4.229-12.311-12.69-12.311" transform="translate(-89.686 -10.351)" fill="#df091f"/>
    <path id="Path_7" data-name="Path 7" d="M127.855,54.827h0a3.988,3.988,0,1,1-7.976,0V51.568a2.825,2.825,0,0,1,1.724-2.505c1.347-.713,2.884-1.347,3.632-1.687,1.423-.634,2.62.116,2.62,1.463Zm-.784-28.787h-6.4c-8.234,0-12.617,4.377-12.691,12.162v.453a1.928,1.928,0,0,0,2.056,2.022h5.429c2.1,0,3.593-.564,4.008-2.325.184-.783.149-.783.374-1.532.634-2.36,1.981-3.594,3.743-3.594h.748a3.6,3.6,0,0,1,3.069,1.424,3.137,3.137,0,0,1,.49,1.832,5.868,5.868,0,0,1-2.287,4.756c-1.2,1.123-3.183,1.946-9.506,2.845-5.578.789-8.124,3.368-8.124,7.6v3.633c0,7.221,4.416,10.7,12.691,10.7h6.4c8.418,0,12.649-5.091,12.649-12.317V38.352c0-7.67-4.231-12.312-12.649-12.312" transform="translate(-42.916 -10.35)" fill="#df091f"/>
    <path id="Path_8" data-name="Path 8" d="M303.532,26.039h-6.367c-8.31,0-12.691,4.452-12.691,12.313V64.374c0,1.013.415,1.646,1.424,1.646h8.837a1.579,1.579,0,0,0,1.608-1.646V37.228a3.987,3.987,0,1,1,7.974,0v2.7c0,2.656,1.721,3.629,3.407,3.629h6.847a1.612,1.612,0,0,0,1.647-1.647V38.352c0-7.671-4.266-12.313-12.685-12.313" transform="translate(-113.065 -10.349)" fill="#df091f"/>
    <path id="Path_9" data-name="Path 9" d="M42.4,156.244h0a5.821,5.821,0,0,0,8.724-5.431c0-3.444-2.4-6.288-5.689-6.288a5,5,0,0,0-3.633,1.457l-.3-.783a.516.516,0,0,0-.523-.375H40.11a.609.609,0,0,0-.6.56v19.733a.608.608,0,0,0,.6.559h1.647c.415,0,.639-.225.639-.559Zm-.074-2.62v-4.8a3.076,3.076,0,0,1,2.768-1.722c2.022,0,3.259,1.687,3.259,3.707a3.482,3.482,0,0,1-3.408,3.668,4.444,4.444,0,0,1-2.619-.858" transform="translate(-15.704 -57.442)" fill="#424449"/>
    <path id="Path_10" data-name="Path 10" d="M62.379,150.774h0a5.951,5.951,0,0,0,5.989,6.254,6.863,6.863,0,0,0,4.416-1.5c.339-.3.264-.524.04-.75L72,153.623c-.224-.3-.448-.149-.823.035a4.715,4.715,0,0,1-2.62.863,3.478,3.478,0,0,1-3.448-3.183h8.125a.527.527,0,0,0,.524-.49,5.732,5.732,0,0,0,.075-.822,5.372,5.372,0,0,0-5.5-5.5,5.986,5.986,0,0,0-5.953,6.249m2.88-1.308a3.017,3.017,0,0,1,3.033-2.66,2.871,2.871,0,0,1,2.77,2.66Z" transform="translate(-24.793 -57.442)" fill="#424449"/>
    <path id="Path_11" data-name="Path 11" d="M84.68,153.06h0a3.684,3.684,0,0,0,3.857,3.968,5.339,5.339,0,0,0,3.67-1.5l.3.788c.11.3.224.409.484.409h.863a.57.57,0,0,0,.559-.559V149.84c0-3-.374-5.314-4.191-5.314a12.44,12.44,0,0,0-4.082.674.537.537,0,0,0-.409.673l.26,1.123c.074.334.3.56.638.484a12.44,12.44,0,0,1,3.333-.559c1.532,0,1.871.749,1.871,2.62a9.21,9.21,0,0,0-2.359-.339c-3.07,0-4.792,1.647-4.792,3.857m2.62-.034c0-1.238.974-1.987,2.4-1.987a4.513,4.513,0,0,1,2.1.489v1.907a3.574,3.574,0,0,1-2.694,1.5,1.8,1.8,0,0,1-1.8-1.906" transform="translate(-33.656 -57.442)" fill="#424449"/>
    <path id="Path_12" data-name="Path 12" d="M105.619,150.813a6.2,6.2,0,0,0,6.212,6.215,5.215,5.215,0,0,0,4.606-2.506c.225-.3.109-.6-.19-.823l-.822-.639a.51.51,0,0,0-.783.04,3.606,3.606,0,0,1-2.771,1.382,3.695,3.695,0,0,1,.036-7.375,3.237,3.237,0,0,1,2.36,1.121c.26.225.449.45.823.15l.973-.9a.6.6,0,0,0,.11-.858,5.3,5.3,0,0,0-4.3-2.1,6.318,6.318,0,0,0-6.253,6.288" transform="translate(-41.979 -57.442)" fill="#424449"/>
    <path id="Path_13" data-name="Path 13" d="M127.11,150.774h0a5.952,5.952,0,0,0,5.993,6.254,6.8,6.8,0,0,0,4.417-1.5c.373-.3.258-.524.074-.75l-.862-1.157c-.225-.3-.449-.149-.785.035a4.838,4.838,0,0,1-2.658.863,3.409,3.409,0,0,1-3.409-3.183h8.09a.507.507,0,0,0,.522-.49,6.523,6.523,0,0,0,.077-.822,5.364,5.364,0,0,0-5.466-5.5,6,6,0,0,0-5.993,6.249m2.919-1.308a2.989,2.989,0,0,1,3.034-2.66,2.813,2.813,0,0,1,2.735,2.66Z" transform="translate(-50.52 -57.442)" fill="#424449"/>
    <path id="Path_14" data-name="Path 14" d="M160.288,150.739h0a6.028,6.028,0,1,0,6.028-6.215,6.178,6.178,0,0,0-6.028,6.215m2.66,0a3.378,3.378,0,1,1,6.736,0,3.387,3.387,0,1,1-6.736,0" transform="translate(-63.707 -57.442)" fill="#424449"/>
    <path id="Path_15" data-name="Path 15" d="M185.508,150.267a.576.576,0,0,0,.564.559h1.756a.575.575,0,0,0,.564-.559v-8.874h3.218a.553.553,0,0,0,.56-.565v-1.347a.529.529,0,0,0-.56-.559h-3.218v-3.709c0-1.981.9-2.96,2.246-2.96a4.029,4.029,0,0,1,1.946.714c.3.224.6.19.75-.075l.748-1.347a.583.583,0,0,0-.114-.674,5.362,5.362,0,0,0-3.4-1.2c-2.843,0-5.054,1.832-5.054,5.54v3.709h-1.422a.529.529,0,0,0-.56.559v1.347a.553.553,0,0,0,.56.565h1.422Z" transform="translate(-72.943 -51.539)" fill="#424449"/>
    <path id="Path_16" data-name="Path 16" d="M212.719,156.17a.576.576,0,0,0,.564.559h1.682a.575.575,0,0,0,.563-.559V148.9a3.407,3.407,0,0,1,2.955-1.8c1.647,0,2.55,1.048,2.55,2.959v6.1a.549.549,0,0,0,.56.559h1.572a.576.576,0,0,0,.564-.559v-6.179a12.326,12.326,0,0,0-.077-1.422,4.147,4.147,0,0,1,3.069-1.463c1.607,0,2.471,1.088,2.471,2.959v6.1a.548.548,0,0,0,.559.559H231.4a.55.55,0,0,0,.565-.559v-5.994c0-3.1-1.272-5.65-4.905-5.65a6.515,6.515,0,0,0-4.3,1.906,4.43,4.43,0,0,0-3.858-1.906,5.573,5.573,0,0,0-3.932,1.647l-.334-1.013a.5.5,0,0,0-.49-.334h-.858a.575.575,0,0,0-.564.559Z" transform="translate(-84.546 -57.442)" fill="#424449"/>
    <path id="Path_17" data-name="Path 17" d="M252.056,134.649h0a1.743,1.743,0,1,0-1.686-1.727,1.729,1.729,0,0,0,1.686,1.727m-1.347,16.21a.573.573,0,0,0,.56.56h1.686a.573.573,0,0,0,.56-.56V140.075a.573.573,0,0,0-.56-.56h-1.686a.573.573,0,0,0-.56.56Z" transform="translate(-99.51 -52.132)" fill="#424449"/>
    <path id="Path_18" data-name="Path 18" d="M262.047,156.17a.576.576,0,0,0,.564.559h1.571c.484,0,.674-.185.674-.559V148.9a3.945,3.945,0,0,1,3.294-1.8c1.573,0,2.47,1.048,2.47,2.959v6.1a.574.574,0,0,0,.563.559h1.723a.57.57,0,0,0,.558-.559v-5.994c0-3.1-1.348-5.65-4.976-5.65a6.023,6.023,0,0,0-4.156,1.647l-.375-1.013a.5.5,0,0,0-.489-.334h-.858a.575.575,0,0,0-.564.559Z" transform="translate(-104.151 -57.442)" fill="#424449"/>
    <path id="Path_19" data-name="Path 19" d="M285.784,145.069h0c0,3.448,2.395,6.253,5.58,6.253a5.327,5.327,0,0,0,3.777-1.647l.223.864c.116.3.265.484.525.484h.9a.576.576,0,0,0,.563-.56V130.731a.575.575,0,0,0-.563-.559h-1.723a.57.57,0,0,0-.558.559v8.724a7.619,7.619,0,0,0-2.844-.634,6,6,0,0,0-5.879,6.249m2.769,0a3.457,3.457,0,0,1,3.409-3.668,4.961,4.961,0,0,1,2.58.713v4.866a3.192,3.192,0,0,1-2.845,1.8c-1.912,0-3.144-1.721-3.144-3.707" transform="translate(-113.586 -51.737)" fill="#424449"/>
    <path id="Path_20" data-name="Path 20" d="M311.029,128.619c0,.075.04.11.116.11h.448a.1.1,0,0,0,.109-.11v-2.884h.79a.1.1,0,0,0,.108-.11v-.414c0-.036-.035-.075-.108-.075h-2.246c-.075,0-.116.04-.116.075v.414c0,.074.041.11.116.11h.783Z" transform="translate(-123.262 -49.736)" fill="#424449"/>
    <path id="Path_21" data-name="Path 21" d="M314.6,128.57c0,.075.039.11.116.11h.448c.074,0,.114-.034.114-.075l.3-1.946.934,2.022c0,.04.04.04.074.04h.077c.074,0,.074,0,.113-.04l.9-2.022.3,1.946a.18.18,0,0,0,.11.075h.489a.077.077,0,0,0,.075-.11l-.6-3.483c0-.036-.04-.075-.115-.075h-.075a.085.085,0,0,0-.075.075l-1.158,2.435-1.123-2.435c-.039-.036-.075-.075-.114-.075h-.075a.084.084,0,0,0-.075.075Z" transform="translate(-125.04 -49.686)" fill="#424449"/>
  </g>
</svg>
